# xmcd
#
# Track frame offsets:
#	150
#	15800
#	30280
#	45770
#	62547
#	79516
#	94285
#	113164
#	132172
#	145465
#	158349
#	173463
#	189543
#	206193
#	223367
#	235531
#	252155
#
# Disc length: 3549
#
# Revision: 1
# Processed by: cddbd v1.5.1PL0 Copyright (c) Steve Scherf et al.
# Submitted via: VisiTrax 2.9.5.180 - For more info visit www.synapsa.com
# Normalized: r0:DSETVAR1
#
DISCID=ce0ddb11
DTITLE=Various Artist - CDX 301 September 2002
DYEAR=2002
DGENRE=
TTITLE0=McBride and The Ride - Amarillo sk
TTITLE1=Aselin Debison - Driftwood
TTITLE2=Darryl Worley - Family tree
TTITLE3=Mark Chesnutt - I want my baby back
TTITLE4=Gary Allan - Man to man
TTITLE5=Hank Williams Jr - Outdoor lovin' man
TTITLE6=Tim McGraw - Red wagon
TTITLE7=Nitty Gritty Dirt Band - Roll the stone away
TTITLE8=Brad Martin - Rub me the right way
TTITLE9=John Conlee - She's mine
TTITLE10=Nitty Gritty Dirt Band - Some dark holler
TTITLE11=Sixwire - Way too deep
TTITLE12=David Ball - Whenever you come back to me
TTITLE13=Jon Dean Foster - Born survivor
TTITLE14=Peggy Rains - I'll cry instead
TTITLE15=Billy Hoffman - It just hurts a little
TTITLE16=King Country - King country
EXTD=
EXTT0=
EXTT1=
EXTT2=
EXTT3=
EXTT4=
EXTT5=
EXTT6=
EXTT7=
EXTT8=
EXTT9=
EXTT10=
EXTT11=
EXTT12=
EXTT13=
EXTT14=
EXTT15=
EXTT16=
PLAYORDER=
